<svg width="152" height="40" viewBox="0 0 152 40" fill="none" xmlns="http://www.w3.org/2000/svg">
<path fill-rule="evenodd" clip-rule="evenodd" d="M20 4.16675C28.7432 4.16675 35.8333 11.2553 35.8333 20.0001C35.8333 28.7448 28.7432 35.8334 20 35.8334C11.2552 35.8334 4.16666 28.7448 4.16666 20.0001C4.16666 11.2553 11.2552 4.16675 20 4.16675Z" stroke="#191A15" stroke-width="1.5" stroke-linecap="round" stroke-linejoin="round"/>
<path fill-rule="evenodd" clip-rule="evenodd" d="M25 19.9919C25 18.64 18.0709 14.3152 17.2848 15.0928C16.4988 15.8705 16.4232 24.0401 17.2848 24.891C18.1464 25.7449 25 21.3438 25 19.9919Z" stroke="#191A15" stroke-width="1.5" stroke-linecap="round" stroke-linejoin="round"/>
<path d="M56.5824 13.9091L60.2259 24.571H60.3729L64.0163 13.9091H66.1513L61.4403 27H59.1584L54.4474 13.9091H56.5824ZM67.8883 27V17.1818H69.7995V27H67.8883ZM68.8535 15.6669C68.5211 15.6669 68.2356 15.5561 67.997 15.3345C67.7626 15.1087 67.6454 14.8402 67.6454 14.5291C67.6454 14.2138 67.7626 13.9453 67.997 13.7237C68.2356 13.4979 68.5211 13.3849 68.8535 13.3849C69.1859 13.3849 69.4693 13.4979 69.7037 13.7237C69.9423 13.9453 70.0616 14.2138 70.0616 14.5291C70.0616 14.8402 69.9423 15.1087 69.7037 15.3345C69.4693 15.5561 69.1859 15.6669 68.8535 15.6669ZM76.6023 27.1982C75.6349 27.1982 74.8018 26.9915 74.103 26.5781C73.4084 26.1605 72.8714 25.5746 72.4922 24.8203C72.1172 24.0618 71.9297 23.1733 71.9297 22.1548C71.9297 21.1491 72.1172 20.2628 72.4922 19.4957C72.8714 18.7287 73.3999 18.13 74.0774 17.6996C74.7592 17.2692 75.5561 17.054 76.468 17.054C77.022 17.054 77.5589 17.1456 78.0788 17.3288C78.5987 17.5121 79.0653 17.7997 79.4787 18.1918C79.892 18.5838 80.218 19.093 80.4567 19.7195C80.6953 20.3416 80.8146 21.098 80.8146 21.9886V22.6662H73.0099V21.2344H78.9418C78.9418 20.7315 78.8395 20.2862 78.6349 19.8984C78.4304 19.5064 78.1428 19.1974 77.772 18.9716C77.4055 18.7457 76.9751 18.6328 76.4808 18.6328C75.9439 18.6328 75.4751 18.7649 75.0746 19.0291C74.6783 19.2891 74.3714 19.63 74.1541 20.0518C73.9411 20.4695 73.8345 20.9233 73.8345 21.4134V22.532C73.8345 23.1882 73.9496 23.7464 74.1797 24.2067C74.4141 24.6669 74.7401 25.0185 75.1577 25.2614C75.5753 25.5 76.0632 25.6193 76.6214 25.6193C76.9837 25.6193 77.3139 25.5682 77.6122 25.4659C77.9105 25.3594 78.1683 25.2017 78.3857 24.9929C78.603 24.7841 78.7692 24.5263 78.8842 24.2195L80.6932 24.5455C80.5483 25.0781 80.2884 25.5447 79.9134 25.9453C79.5426 26.3416 79.076 26.6506 78.5135 26.8722C77.9553 27.0895 77.3182 27.1982 76.6023 27.1982ZM85.0462 27L82.157 17.1818H84.1321L86.0561 24.392H86.152L88.0824 17.1818H90.0575L91.9751 24.3601H92.071L93.9822 17.1818H95.9574L93.0746 27H91.125L89.1307 19.9112H88.9837L86.9893 27H85.0462ZM106.926 27H102.688V13.9091H107.06C108.343 13.9091 109.445 14.1712 110.365 14.6953C111.286 15.2152 111.991 15.9631 112.481 16.9389C112.975 17.9105 113.222 19.076 113.222 20.4354C113.222 21.799 112.973 22.9709 112.474 23.951C111.98 24.9311 111.264 25.6854 110.327 26.2138C109.389 26.7379 108.256 27 106.926 27ZM104.663 25.2741H106.817C107.815 25.2741 108.643 25.0866 109.304 24.7116C109.964 24.3324 110.459 23.7848 110.787 23.0689C111.115 22.3487 111.279 21.4709 111.279 20.4354C111.279 19.4084 111.115 18.5369 110.787 17.821C110.463 17.1051 109.979 16.5618 109.336 16.1911C108.692 15.8203 107.893 15.6349 106.939 15.6349H104.663V25.2741ZM119.757 27.1982C118.789 27.1982 117.956 26.9915 117.257 26.5781C116.563 26.1605 116.026 25.5746 115.646 24.8203C115.271 24.0618 115.084 23.1733 115.084 22.1548C115.084 21.1491 115.271 20.2628 115.646 19.4957C116.026 18.7287 116.554 18.13 117.232 17.6996C117.914 17.2692 118.71 17.054 119.622 17.054C120.176 17.054 120.713 17.1456 121.233 17.3288C121.753 17.5121 122.22 17.7997 122.633 18.1918C123.046 18.5838 123.372 19.093 123.611 19.7195C123.85 20.3416 123.969 21.098 123.969 21.9886V22.6662H116.164V21.2344H122.096C122.096 20.7315 121.994 20.2862 121.789 19.8984C121.585 19.5064 121.297 19.1974 120.926 18.9716C120.56 18.7457 120.129 18.6328 119.635 18.6328C119.098 18.6328 118.629 18.7649 118.229 19.0291C117.833 19.2891 117.526 19.63 117.308 20.0518C117.095 20.4695 116.989 20.9233 116.989 21.4134V22.532C116.989 23.1882 117.104 23.7464 117.334 24.2067C117.568 24.6669 117.894 25.0185 118.312 25.2614C118.73 25.5 119.218 25.6193 119.776 25.6193C120.138 25.6193 120.468 25.5682 120.767 25.4659C121.065 25.3594 121.323 25.2017 121.54 24.9929C121.757 24.7841 121.923 24.5263 122.039 24.2195L123.847 24.5455C123.703 25.0781 123.443 25.5447 123.068 25.9453C122.697 26.3416 122.23 26.6506 121.668 26.8722C121.11 27.0895 120.472 27.1982 119.757 27.1982ZM126.089 27V17.1818H127.924V18.7798H128.045C128.25 18.2386 128.585 17.8168 129.049 17.5142C129.513 17.2074 130.07 17.054 130.717 17.054C131.374 17.054 131.923 17.2074 132.366 17.5142C132.814 17.821 133.144 18.2429 133.357 18.7798H133.46C133.694 18.2557 134.067 17.8381 134.578 17.527C135.089 17.2116 135.699 17.054 136.406 17.054C137.297 17.054 138.023 17.3331 138.586 17.8913C139.153 18.4496 139.436 19.2912 139.436 20.4162V27H137.525V20.5952C137.525 19.9304 137.344 19.4489 136.982 19.1506C136.619 18.8523 136.187 18.7031 135.684 18.7031C135.062 18.7031 134.578 18.8949 134.233 19.2784C133.888 19.6577 133.715 20.1456 133.715 20.7422V27H131.81V20.4737C131.81 19.9411 131.644 19.5128 131.312 19.1889C130.979 18.8651 130.547 18.7031 130.014 18.7031C129.652 18.7031 129.317 18.799 129.011 18.9908C128.708 19.1783 128.463 19.4403 128.276 19.777C128.092 20.1136 128.001 20.5036 128.001 20.9467V27H126.089ZM146.133 27.1982C145.213 27.1982 144.41 26.9872 143.724 26.5653C143.037 26.1435 142.505 25.5533 142.126 24.7947C141.746 24.0362 141.557 23.1499 141.557 22.1357C141.557 21.1172 141.746 20.2266 142.126 19.4638C142.505 18.701 143.037 18.1087 143.724 17.6868C144.41 17.2649 145.213 17.054 146.133 17.054C147.054 17.054 147.857 17.2649 148.543 17.6868C149.229 18.1087 149.762 18.701 150.141 19.4638C150.52 20.2266 150.71 21.1172 150.71 22.1357C150.71 23.1499 150.52 24.0362 150.141 24.7947C149.762 25.5533 149.229 26.1435 148.543 26.5653C147.857 26.9872 147.054 27.1982 146.133 27.1982ZM146.14 25.5938C146.736 25.5938 147.231 25.4361 147.623 25.1207C148.015 24.8054 148.305 24.3857 148.492 23.8615C148.684 23.3374 148.78 22.7599 148.78 22.1293C148.78 21.5028 148.684 20.9276 148.492 20.4034C148.305 19.875 148.015 19.451 147.623 19.1314C147.231 18.8118 146.736 18.652 146.14 18.652C145.539 18.652 145.04 18.8118 144.644 19.1314C144.252 19.451 143.96 19.875 143.768 20.4034C143.581 20.9276 143.487 21.5028 143.487 22.1293C143.487 22.7599 143.581 23.3374 143.768 23.8615C143.96 24.3857 144.252 24.8054 144.644 25.1207C145.04 25.4361 145.539 25.5938 146.14 25.5938Z" fill="#191A15"/>
</svg>
