<svg width="320" height="86" viewBox="0 0 320 86" fill="none" xmlns="http://www.w3.org/2000/svg">
<g filter="url(#filter0_d_0_227)">
<rect x="9" y="5" width="302" height="68" rx="10" fill="white"/>
</g>
<path d="M74.5852 32.9091H76.4773L80.9261 43.7756H81.0795L85.5284 32.9091H87.4205V46H85.9375V36.054H85.8097L81.7188 46H80.2869L76.196 36.054H76.0682V46H74.5852V32.9091ZM93.843 46.2045C92.9566 46.2045 92.1789 45.9936 91.5099 45.5717C90.8451 45.1499 90.3252 44.5597 89.9502 43.8011C89.5795 43.0426 89.3941 42.1562 89.3941 41.142C89.3941 40.1193 89.5795 39.2266 89.9502 38.4638C90.3252 37.701 90.8451 37.1087 91.5099 36.6868C92.1789 36.2649 92.9566 36.054 93.843 36.054C94.7294 36.054 95.5049 36.2649 96.1697 36.6868C96.8387 37.1087 97.3586 37.701 97.7294 38.4638C98.1044 39.2266 98.2919 40.1193 98.2919 41.142C98.2919 42.1562 98.1044 43.0426 97.7294 43.8011C97.3586 44.5597 96.8387 45.1499 96.1697 45.5717C95.5049 45.9936 94.7294 46.2045 93.843 46.2045ZM93.843 44.8494C94.5163 44.8494 95.0703 44.6768 95.5049 44.3317C95.9396 43.9865 96.2613 43.5327 96.4701 42.9702C96.6789 42.4077 96.7833 41.7983 96.7833 41.142C96.7833 40.4858 96.6789 39.8743 96.4701 39.3075C96.2613 38.7408 95.9396 38.2827 95.5049 37.9332C95.0703 37.5838 94.5163 37.4091 93.843 37.4091C93.1697 37.4091 92.6157 37.5838 92.1811 37.9332C91.7464 38.2827 91.4247 38.7408 91.2159 39.3075C91.0071 39.8743 90.9026 40.4858 90.9026 41.142C90.9026 41.7983 91.0071 42.4077 91.2159 42.9702C91.4247 43.5327 91.7464 43.9865 92.1811 44.3317C92.6157 44.6768 93.1697 44.8494 93.843 44.8494ZM101.563 40.0938V46H100.055V36.1818H101.512V37.7159H101.64C101.87 37.2173 102.219 36.8168 102.688 36.5142C103.157 36.2074 103.762 36.054 104.503 36.054C105.168 36.054 105.75 36.1903 106.248 36.4631C106.747 36.7315 107.135 37.1406 107.412 37.6903C107.689 38.2358 107.827 38.9261 107.827 39.7614V46H106.319V39.8636C106.319 39.0923 106.119 38.4915 105.718 38.0611C105.317 37.6264 104.768 37.4091 104.069 37.4091C103.587 37.4091 103.157 37.5135 102.778 37.7223C102.403 37.9311 102.106 38.2358 101.889 38.6364C101.672 39.0369 101.563 39.5227 101.563 40.0938ZM114.16 46.2045C113.214 46.2045 112.398 45.9957 111.712 45.5781C111.03 45.1562 110.504 44.5682 110.133 43.8139C109.767 43.0554 109.584 42.1733 109.584 41.1676C109.584 40.1619 109.767 39.2756 110.133 38.5085C110.504 37.7372 111.02 37.1364 111.68 36.706C112.345 36.2713 113.121 36.054 114.007 36.054C114.518 36.054 115.023 36.1392 115.522 36.3097C116.02 36.4801 116.474 36.7571 116.883 37.1406C117.292 37.5199 117.618 38.0227 117.861 38.6491C118.104 39.2756 118.226 40.0469 118.226 40.9631V41.6023H110.658V40.2983H116.692C116.692 39.7443 116.581 39.25 116.359 38.8153C116.142 38.3807 115.831 38.0376 115.426 37.7862C115.025 37.5348 114.552 37.4091 114.007 37.4091C113.406 37.4091 112.886 37.5582 112.447 37.8565C112.013 38.1506 111.678 38.5341 111.444 39.0071C111.209 39.4801 111.092 39.9872 111.092 40.5284V41.3977C111.092 42.1392 111.22 42.7678 111.476 43.2834C111.736 43.7947 112.096 44.1847 112.556 44.4531C113.016 44.7173 113.551 44.8494 114.16 44.8494C114.557 44.8494 114.915 44.794 115.234 44.6832C115.558 44.5682 115.837 44.3977 116.072 44.1719C116.306 43.9418 116.487 43.6562 116.615 43.3153L118.072 43.7244C117.919 44.2188 117.661 44.6534 117.299 45.0284C116.937 45.3991 116.489 45.6889 115.957 45.8977C115.424 46.1023 114.825 46.2045 114.16 46.2045ZM120.653 49.6818C120.398 49.6818 120.17 49.6605 119.969 49.6179C119.769 49.5795 119.63 49.5412 119.554 49.5028L119.937 48.1733C120.304 48.267 120.628 48.3011 120.909 48.2756C121.19 48.25 121.439 48.1243 121.657 47.8984C121.878 47.6768 122.081 47.3168 122.264 46.8182L122.545 46.0511L118.915 36.1818H120.551L123.261 44.0057H123.363L126.074 36.1818H127.71L123.542 47.4318C123.355 47.9389 123.123 48.3587 122.846 48.6911C122.569 49.0277 122.247 49.277 121.88 49.4389C121.518 49.6009 121.109 49.6818 120.653 49.6818ZM133.172 34.3153V32.9091H142.99V34.3153H138.874V46H137.289V34.3153H133.172ZM143.673 46V36.1818H145.13V37.6648H145.233C145.412 37.179 145.735 36.7848 146.204 36.4822C146.673 36.1797 147.201 36.0284 147.789 36.0284C147.9 36.0284 148.039 36.0305 148.205 36.0348C148.371 36.0391 148.497 36.0455 148.582 36.054V37.5881C148.531 37.5753 148.414 37.5561 148.23 37.5305C148.052 37.5007 147.862 37.4858 147.662 37.4858C147.184 37.4858 146.758 37.5859 146.383 37.7862C146.012 37.9822 145.718 38.255 145.501 38.6044C145.288 38.9496 145.181 39.3437 145.181 39.7869V46H143.673ZM152.719 46.2301C152.097 46.2301 151.533 46.1129 151.026 45.8786C150.518 45.6399 150.116 45.2969 149.817 44.8494C149.519 44.3977 149.37 43.8523 149.37 43.2131C149.37 42.6506 149.481 42.1946 149.702 41.8452C149.924 41.4915 150.22 41.2145 150.591 41.0142C150.962 40.8139 151.371 40.6648 151.818 40.5668C152.27 40.4645 152.724 40.3835 153.18 40.3239C153.776 40.2472 154.26 40.1896 154.631 40.1513C155.006 40.1087 155.278 40.0384 155.449 39.9403C155.624 39.8423 155.711 39.6719 155.711 39.429V39.3778C155.711 38.7472 155.538 38.2571 155.193 37.9077C154.852 37.5582 154.334 37.3835 153.64 37.3835C152.92 37.3835 152.355 37.5412 151.946 37.8565C151.537 38.1719 151.249 38.5085 151.083 38.8665L149.651 38.3551C149.907 37.7585 150.248 37.294 150.674 36.9616C151.104 36.625 151.573 36.3906 152.08 36.2585C152.592 36.1222 153.094 36.054 153.589 36.054C153.904 36.054 154.266 36.0923 154.675 36.169C155.089 36.2415 155.487 36.3928 155.871 36.6229C156.258 36.853 156.58 37.2003 156.836 37.6648C157.092 38.1293 157.219 38.7514 157.219 39.5312V46H155.711V44.6705H155.634C155.532 44.8835 155.361 45.1115 155.123 45.3544C154.884 45.5973 154.567 45.804 154.17 45.9744C153.774 46.1449 153.29 46.2301 152.719 46.2301ZM152.95 44.875C153.546 44.875 154.049 44.7578 154.458 44.5234C154.871 44.2891 155.182 43.9865 155.391 43.6158C155.604 43.245 155.711 42.8551 155.711 42.446V41.0653C155.647 41.142 155.506 41.2124 155.289 41.2763C155.076 41.3359 154.829 41.3892 154.548 41.4361C154.271 41.4787 154 41.517 153.736 41.5511C153.476 41.581 153.265 41.6065 153.103 41.6278C152.711 41.679 152.344 41.7621 152.004 41.8771C151.667 41.9879 151.394 42.1562 151.185 42.3821C150.981 42.6037 150.879 42.9062 150.879 43.2898C150.879 43.8139 151.072 44.2102 151.46 44.4787C151.852 44.7429 152.349 44.875 152.95 44.875ZM160.941 40.0938V46H159.433V36.1818H160.89V37.7159H161.018C161.248 37.2173 161.598 36.8168 162.066 36.5142C162.535 36.2074 163.14 36.054 163.882 36.054C164.546 36.054 165.128 36.1903 165.627 36.4631C166.125 36.7315 166.513 37.1406 166.79 37.6903C167.067 38.2358 167.206 38.9261 167.206 39.7614V46H165.697V39.8636C165.697 39.0923 165.497 38.4915 165.096 38.0611C164.696 37.6264 164.146 37.4091 163.447 37.4091C162.965 37.4091 162.535 37.5135 162.156 37.7223C161.781 37.9311 161.485 38.2358 161.267 38.6364C161.05 39.0369 160.941 39.5227 160.941 40.0938ZM176.377 38.3807L175.022 38.7642C174.936 38.5384 174.811 38.3189 174.644 38.1058C174.482 37.8885 174.261 37.7095 173.98 37.5689C173.698 37.4283 173.338 37.358 172.899 37.358C172.299 37.358 171.798 37.4964 171.397 37.7734C171.001 38.0462 170.803 38.3935 170.803 38.8153C170.803 39.1903 170.939 39.4865 171.212 39.7038C171.485 39.9212 171.911 40.1023 172.49 40.2472L173.948 40.6051C174.825 40.8182 175.48 41.1442 175.91 41.5831C176.34 42.0178 176.556 42.5781 176.556 43.2642C176.556 43.8267 176.394 44.3295 176.07 44.7727C175.75 45.2159 175.303 45.5653 174.727 45.821C174.152 46.0767 173.483 46.2045 172.72 46.2045C171.719 46.2045 170.89 45.9872 170.234 45.5526C169.578 45.1179 169.162 44.483 168.987 43.6477L170.419 43.2898C170.556 43.8182 170.813 44.2145 171.193 44.4787C171.576 44.7429 172.077 44.875 172.695 44.875C173.398 44.875 173.956 44.7259 174.37 44.4276C174.787 44.125 174.996 43.7628 174.996 43.3409C174.996 43 174.877 42.7145 174.638 42.4844C174.399 42.25 174.033 42.0753 173.539 41.9602L171.902 41.5767C171.003 41.3636 170.343 41.0334 169.921 40.5859C169.503 40.1342 169.294 39.5696 169.294 38.892C169.294 38.3381 169.45 37.848 169.761 37.4219C170.076 36.9957 170.504 36.6612 171.046 36.4183C171.591 36.1754 172.209 36.054 172.899 36.054C173.871 36.054 174.634 36.267 175.188 36.6932C175.746 37.1193 176.142 37.6818 176.377 38.3807ZM182.659 36.1818V37.4602H177.366V36.1818H182.659ZM178.951 46V34.8267C178.951 34.2642 179.083 33.7955 179.347 33.4205C179.612 33.0455 179.955 32.7642 180.377 32.5767C180.798 32.3892 181.244 32.2955 181.713 32.2955C182.083 32.2955 182.386 32.3253 182.62 32.3849C182.855 32.4446 183.029 32.5 183.144 32.5511L182.71 33.8551C182.633 33.8295 182.526 33.7976 182.39 33.7592C182.258 33.7209 182.083 33.7017 181.866 33.7017C181.367 33.7017 181.007 33.8274 180.786 34.0788C180.568 34.3303 180.46 34.6989 180.46 35.1847V46H178.951ZM187.945 46.2045C186.999 46.2045 186.183 45.9957 185.497 45.5781C184.815 45.1562 184.289 44.5682 183.918 43.8139C183.551 43.0554 183.368 42.1733 183.368 41.1676C183.368 40.1619 183.551 39.2756 183.918 38.5085C184.289 37.7372 184.804 37.1364 185.465 36.706C186.13 36.2713 186.905 36.054 187.791 36.054C188.303 36.054 188.808 36.1392 189.306 36.3097C189.805 36.4801 190.259 36.7571 190.668 37.1406C191.077 37.5199 191.403 38.0227 191.646 38.6491C191.889 39.2756 192.01 40.0469 192.01 40.9631V41.6023H184.442V40.2983H190.476C190.476 39.7443 190.365 39.25 190.144 38.8153C189.926 38.3807 189.615 38.0376 189.211 37.7862C188.81 37.5348 188.337 37.4091 187.791 37.4091C187.191 37.4091 186.671 37.5582 186.232 37.8565C185.797 38.1506 185.463 38.5341 185.228 39.0071C184.994 39.4801 184.877 39.9872 184.877 40.5284V41.3977C184.877 42.1392 185.005 42.7678 185.26 43.2834C185.52 43.7947 185.88 44.1847 186.34 44.4531C186.801 44.7173 187.336 44.8494 187.945 44.8494C188.341 44.8494 188.699 44.794 189.019 44.6832C189.343 44.5682 189.622 44.3977 189.856 44.1719C190.09 43.9418 190.272 43.6562 190.399 43.3153L191.857 43.7244C191.703 44.2188 191.446 44.6534 191.083 45.0284C190.721 45.3991 190.274 45.6889 189.741 45.8977C189.208 46.1023 188.61 46.2045 187.945 46.2045ZM193.765 46V36.1818H195.222V37.6648H195.325C195.504 37.179 195.827 36.7848 196.296 36.4822C196.765 36.1797 197.293 36.0284 197.881 36.0284C197.992 36.0284 198.131 36.0305 198.297 36.0348C198.463 36.0391 198.589 36.0455 198.674 36.054V37.5881C198.623 37.5753 198.506 37.5561 198.323 37.5305C198.144 37.5007 197.954 37.4858 197.754 37.4858C197.276 37.4858 196.85 37.5859 196.475 37.7862C196.104 37.9822 195.81 38.255 195.593 38.6044C195.38 38.9496 195.274 39.3437 195.274 39.7869V46H193.765ZM211.808 36.1818C211.732 35.5341 211.421 35.0312 210.875 34.6733C210.33 34.3153 209.661 34.1364 208.868 34.1364C208.288 34.1364 207.781 34.2301 207.347 34.4176C206.916 34.6051 206.58 34.8629 206.337 35.1911C206.098 35.5192 205.979 35.892 205.979 36.3097C205.979 36.6591 206.062 36.9595 206.228 37.2109C206.399 37.4581 206.616 37.6648 206.88 37.831C207.144 37.9929 207.421 38.1271 207.711 38.2337C208.001 38.3359 208.267 38.419 208.51 38.483L209.84 38.8409C210.181 38.9304 210.56 39.054 210.977 39.2116C211.399 39.3693 211.802 39.5845 212.186 39.8572C212.573 40.1257 212.893 40.4709 213.144 40.8928C213.396 41.3146 213.521 41.8324 213.521 42.446C213.521 43.1534 213.336 43.7926 212.965 44.3636C212.599 44.9347 212.062 45.3885 211.355 45.7251C210.651 46.0618 209.797 46.2301 208.791 46.2301C207.854 46.2301 207.042 46.0788 206.356 45.7763C205.674 45.4737 205.137 45.0518 204.745 44.5107C204.357 43.9695 204.138 43.3409 204.087 42.625H205.723C205.766 43.1193 205.932 43.5284 206.222 43.8523C206.516 44.1719 206.886 44.4105 207.334 44.5682C207.786 44.7216 208.271 44.7983 208.791 44.7983C209.396 44.7983 209.94 44.7003 210.421 44.5043C210.903 44.304 211.284 44.027 211.565 43.6733C211.847 43.3153 211.987 42.8977 211.987 42.4205C211.987 41.9858 211.866 41.6321 211.623 41.3594C211.38 41.0866 211.061 40.8651 210.664 40.6946C210.268 40.5241 209.84 40.375 209.379 40.2472L207.769 39.7869C206.746 39.4929 205.936 39.0732 205.34 38.5277C204.743 37.9822 204.445 37.2685 204.445 36.3864C204.445 35.6534 204.643 35.0142 205.039 34.4688C205.44 33.919 205.977 33.4929 206.65 33.1903C207.328 32.8835 208.084 32.7301 208.919 32.7301C209.763 32.7301 210.513 32.8814 211.169 33.1839C211.825 33.4822 212.345 33.8913 212.729 34.4112C213.117 34.9311 213.321 35.5213 213.342 36.1818H211.808ZM221.571 41.9858V36.1818H223.079V46H221.571V44.3381H221.468C221.238 44.8366 220.88 45.2607 220.395 45.6101C219.909 45.9553 219.295 46.1278 218.554 46.1278C217.94 46.1278 217.395 45.9936 216.917 45.7251C216.44 45.4524 216.065 45.0433 215.792 44.4979C215.52 43.9482 215.383 43.2557 215.383 42.4205V36.1818H216.892V42.3182C216.892 43.0341 217.092 43.6051 217.493 44.0312C217.897 44.4574 218.413 44.6705 219.04 44.6705C219.415 44.6705 219.796 44.5746 220.184 44.3828C220.576 44.1911 220.904 43.897 221.168 43.5007C221.437 43.1044 221.571 42.5994 221.571 41.9858ZM229.291 46.2045C228.37 46.2045 227.578 45.9872 226.913 45.5526C226.248 45.1179 225.737 44.5192 225.379 43.7564C225.021 42.9936 224.842 42.1222 224.842 41.142C224.842 40.1449 225.025 39.2649 225.392 38.5021C225.762 37.7351 226.278 37.1364 226.939 36.706C227.603 36.2713 228.379 36.054 229.265 36.054C229.956 36.054 230.578 36.1818 231.132 36.4375C231.686 36.6932 232.14 37.0511 232.493 37.5114C232.847 37.9716 233.066 38.5085 233.152 39.1222H231.643C231.528 38.6747 231.272 38.2784 230.876 37.9332C230.484 37.5838 229.956 37.4091 229.291 37.4091C228.703 37.4091 228.187 37.5625 227.744 37.8693C227.305 38.1719 226.962 38.6001 226.715 39.1541C226.472 39.7038 226.351 40.3494 226.351 41.0909C226.351 41.8494 226.47 42.5099 226.708 43.0724C226.951 43.6349 227.292 44.0717 227.731 44.3828C228.174 44.6939 228.694 44.8494 229.291 44.8494C229.683 44.8494 230.039 44.7812 230.358 44.6449C230.678 44.5085 230.949 44.3125 231.17 44.0568C231.392 43.8011 231.549 43.4943 231.643 43.1364H233.152C233.066 43.7159 232.856 44.2379 232.519 44.7024C232.186 45.1626 231.745 45.5291 231.196 45.8018C230.65 46.0703 230.015 46.2045 229.291 46.2045ZM238.806 46.2045C237.885 46.2045 237.092 45.9872 236.428 45.5526C235.763 45.1179 235.252 44.5192 234.894 43.7564C234.536 42.9936 234.357 42.1222 234.357 41.142C234.357 40.1449 234.54 39.2649 234.906 38.5021C235.277 37.7351 235.793 37.1364 236.453 36.706C237.118 36.2713 237.894 36.054 238.78 36.054C239.47 36.054 240.092 36.1818 240.646 36.4375C241.2 36.6932 241.654 37.0511 242.008 37.5114C242.362 37.9716 242.581 38.5085 242.666 39.1222H241.158C241.043 38.6747 240.787 38.2784 240.391 37.9332C239.999 37.5838 239.47 37.4091 238.806 37.4091C238.217 37.4091 237.702 37.5625 237.259 37.8693C236.82 38.1719 236.477 38.6001 236.23 39.1541C235.987 39.7038 235.865 40.3494 235.865 41.0909C235.865 41.8494 235.985 42.5099 236.223 43.0724C236.466 43.6349 236.807 44.0717 237.246 44.3828C237.689 44.6939 238.209 44.8494 238.806 44.8494C239.198 44.8494 239.553 44.7812 239.873 44.6449C240.193 44.5085 240.463 44.3125 240.685 44.0568C240.906 43.8011 241.064 43.4943 241.158 43.1364H242.666C242.581 43.7159 242.37 44.2379 242.034 44.7024C241.701 45.1626 241.26 45.5291 240.71 45.8018C240.165 46.0703 239.53 46.2045 238.806 46.2045ZM248.448 46.2045C247.502 46.2045 246.686 45.9957 246 45.5781C245.318 45.1562 244.792 44.5682 244.421 43.8139C244.055 43.0554 243.871 42.1733 243.871 41.1676C243.871 40.1619 244.055 39.2756 244.421 38.5085C244.792 37.7372 245.307 37.1364 245.968 36.706C246.633 36.2713 247.408 36.054 248.295 36.054C248.806 36.054 249.311 36.1392 249.81 36.3097C250.308 36.4801 250.762 36.7571 251.171 37.1406C251.58 37.5199 251.906 38.0227 252.149 38.6491C252.392 39.2756 252.513 40.0469 252.513 40.9631V41.6023H244.945V40.2983H250.979C250.979 39.7443 250.869 39.25 250.647 38.8153C250.43 38.3807 250.119 38.0376 249.714 37.7862C249.313 37.5348 248.84 37.4091 248.295 37.4091C247.694 37.4091 247.174 37.5582 246.735 37.8565C246.3 38.1506 245.966 38.5341 245.731 39.0071C245.497 39.4801 245.38 39.9872 245.38 40.5284V41.3977C245.38 42.1392 245.508 42.7678 245.763 43.2834C246.023 43.7947 246.383 44.1847 246.844 44.4531C247.304 44.7173 247.839 44.8494 248.448 44.8494C248.844 44.8494 249.202 44.794 249.522 44.6832C249.846 44.5682 250.125 44.3977 250.359 44.1719C250.594 43.9418 250.775 43.6562 250.903 43.3153L252.36 43.7244C252.207 44.2188 251.949 44.6534 251.587 45.0284C251.224 45.3991 250.777 45.6889 250.244 45.8977C249.712 46.1023 249.113 46.2045 248.448 46.2045ZM261.223 38.3807L259.868 38.7642C259.782 38.5384 259.657 38.3189 259.49 38.1058C259.329 37.8885 259.107 37.7095 258.826 37.5689C258.544 37.4283 258.184 37.358 257.745 37.358C257.145 37.358 256.644 37.4964 256.243 37.7734C255.847 38.0462 255.649 38.3935 255.649 38.8153C255.649 39.1903 255.785 39.4865 256.058 39.7038C256.331 39.9212 256.757 40.1023 257.336 40.2472L258.794 40.6051C259.672 40.8182 260.326 41.1442 260.756 41.5831C261.187 42.0178 261.402 42.5781 261.402 43.2642C261.402 43.8267 261.24 44.3295 260.916 44.7727C260.596 45.2159 260.149 45.5653 259.574 45.821C258.998 46.0767 258.329 46.2045 257.566 46.2045C256.565 46.2045 255.736 45.9872 255.08 45.5526C254.424 45.1179 254.008 44.483 253.834 43.6477L255.265 43.2898C255.402 43.8182 255.66 44.2145 256.039 44.4787C256.422 44.7429 256.923 44.875 257.541 44.875C258.244 44.875 258.802 44.7259 259.216 44.4276C259.633 44.125 259.842 43.7628 259.842 43.3409C259.842 43 259.723 42.7145 259.484 42.4844C259.245 42.25 258.879 42.0753 258.385 41.9602L256.748 41.5767C255.849 41.3636 255.189 41.0334 254.767 40.5859C254.349 40.1342 254.14 39.5696 254.14 38.892C254.14 38.3381 254.296 37.848 254.607 37.4219C254.922 36.9957 255.351 36.6612 255.892 36.4183C256.437 36.1754 257.055 36.054 257.745 36.054C258.717 36.054 259.48 36.267 260.034 36.6932C260.592 37.1193 260.988 37.6818 261.223 38.3807ZM267.505 36.1818V37.4602H262.212V36.1818H267.505ZM263.797 46V34.8267C263.797 34.2642 263.929 33.7955 264.194 33.4205C264.458 33.0455 264.801 32.7642 265.223 32.5767C265.645 32.3892 266.09 32.2955 266.559 32.2955C266.929 32.2955 267.232 32.3253 267.466 32.3849C267.701 32.4446 267.875 32.5 267.99 32.5511L267.556 33.8551C267.479 33.8295 267.373 33.7976 267.236 33.7592C267.104 33.7209 266.929 33.7017 266.712 33.7017C266.213 33.7017 265.853 33.8274 265.632 34.0788C265.414 34.3303 265.306 34.6989 265.306 35.1847V46H263.797ZM275.266 41.9858V36.1818H276.775V46H275.266V44.3381H275.164C274.934 44.8366 274.576 45.2607 274.09 45.6101C273.604 45.9553 272.991 46.1278 272.249 46.1278C271.636 46.1278 271.09 45.9936 270.613 45.7251C270.136 45.4524 269.761 45.0433 269.488 44.4979C269.215 43.9482 269.079 43.2557 269.079 42.4205V36.1818H270.587V42.3182C270.587 43.0341 270.788 43.6051 271.188 44.0312C271.593 44.4574 272.109 44.6705 272.735 44.6705C273.11 44.6705 273.491 44.5746 273.879 44.3828C274.271 44.1911 274.599 43.897 274.864 43.5007C275.132 43.1044 275.266 42.5994 275.266 41.9858ZM280.506 32.9091V46H278.998V32.9091H280.506ZM284.238 32.9091V46H282.729V32.9091H284.238Z" fill="#191A15"/>
<path fill-rule="evenodd" clip-rule="evenodd" d="M36.8333 38C36.8333 32.9374 40.9374 28.8333 46 28.8333C51.0626 28.8333 55.1667 32.9374 55.1667 38C55.1667 43.0626 51.0626 47.1667 46 47.1667C40.9374 47.1667 36.8333 43.0626 36.8333 38ZM46 27.1667C40.0169 27.1667 35.1667 32.0169 35.1667 38C35.1667 43.9831 40.0169 48.8333 46 48.8333C51.9831 48.8333 56.8333 43.9831 56.8333 38C56.8333 32.0169 51.9831 27.1667 46 27.1667ZM45.9301 41.6944L51.7196 35.6944L50.2804 34.3056L45.1148 39.6591L41.6137 36.9377L40.3863 38.5168L44.5968 41.7896L45.3062 42.341L45.9301 41.6944Z" fill="#2B9B5B"/>
<defs>
<filter id="filter0_d_0_227" x="0" y="0" width="320" height="86" filterUnits="userSpaceOnUse" color-interpolation-filters="sRGB">
<feFlood flood-opacity="0" result="BackgroundImageFix"/>
<feColorMatrix in="SourceAlpha" type="matrix" values="0 0 0 0 0 0 0 0 0 0 0 0 0 0 0 0 0 0 127 0" result="hardAlpha"/>
<feOffset dy="4"/>
<feGaussianBlur stdDeviation="4.5"/>
<feComposite in2="hardAlpha" operator="out"/>
<feColorMatrix type="matrix" values="0 0 0 0 0 0 0 0 0 0 0 0 0 0 0 0 0 0 0.05 0"/>
<feBlend mode="normal" in2="BackgroundImageFix" result="effect1_dropShadow_0_227"/>
<feBlend mode="normal" in="SourceGraphic" in2="effect1_dropShadow_0_227" result="shape"/>
</filter>
</defs>
</svg>
