<svg width="156" height="88" viewBox="0 0 156 88" fill="none" xmlns="http://www.w3.org/2000/svg">
<g filter="url(#filter0_d_0_217)">
<rect x="9" y="5" width="138" height="70" rx="10" fill="white"/>
</g>
<path d="M26.7102 58.4545V43.9091H27.642V58.4545H26.7102ZM29.625 48.4205C29.5644 47.8826 29.3144 47.4659 28.875 47.1705C28.4356 46.8712 27.8826 46.7216 27.2159 46.7216C26.7386 46.7216 26.3258 46.7973 25.9773 46.9489C25.6288 47.0966 25.358 47.3011 25.1648 47.5625C24.9754 47.8201 24.8807 48.1136 24.8807 48.4432C24.8807 48.7197 24.9451 48.9583 25.0739 49.1591C25.2064 49.3598 25.3788 49.5284 25.5909 49.6648C25.8068 49.7973 26.0379 49.9091 26.2841 50C26.5303 50.0871 26.767 50.1591 26.9943 50.2159L28.1307 50.5114C28.5019 50.6023 28.8826 50.7254 29.2727 50.8807C29.6629 51.036 30.0246 51.2405 30.358 51.4943C30.6913 51.7481 30.9602 52.0625 31.1648 52.4375C31.3731 52.8125 31.4773 53.2614 31.4773 53.7841C31.4773 54.4432 31.3068 55.0284 30.9659 55.5398C30.6288 56.0511 30.1383 56.4545 29.4943 56.75C28.8542 57.0455 28.0795 57.1932 27.1705 57.1932C26.2992 57.1932 25.5455 57.0549 24.9091 56.7784C24.2727 56.5019 23.7746 56.1098 23.4148 55.6023C23.0549 55.0909 22.8561 54.4848 22.8182 53.7841H24.5795C24.6136 54.2045 24.75 54.5549 24.9886 54.8352C25.2311 55.1117 25.5398 55.3182 25.9148 55.4545C26.2936 55.5871 26.7083 55.6534 27.1591 55.6534C27.6553 55.6534 28.0966 55.5758 28.483 55.4205C28.8731 55.2614 29.1799 55.0417 29.4034 54.7614C29.6269 54.4773 29.7386 54.1458 29.7386 53.767C29.7386 53.4223 29.6402 53.1402 29.4432 52.9205C29.25 52.7008 28.9867 52.5189 28.6534 52.375C28.3239 52.2311 27.9508 52.1042 27.5341 51.9943L26.1591 51.6193C25.2273 51.3655 24.4886 50.9924 23.9432 50.5C23.4015 50.0076 23.1307 49.3561 23.1307 48.5455C23.1307 47.875 23.3125 47.2898 23.6761 46.7898C24.0398 46.2898 24.5322 45.9015 25.1534 45.625C25.7746 45.3447 26.4754 45.2045 27.2557 45.2045C28.0436 45.2045 28.7386 45.3428 29.3409 45.6193C29.947 45.8958 30.4242 46.2765 30.7727 46.7614C31.1212 47.2424 31.303 47.7955 31.3182 48.4205H29.625ZM33.4162 57V55.7273L37.3537 51.6477C37.7741 51.2045 38.1207 50.8163 38.3935 50.483C38.67 50.1458 38.8764 49.8258 39.0128 49.5227C39.1491 49.2197 39.2173 48.8977 39.2173 48.5568C39.2173 48.1705 39.1264 47.8371 38.9446 47.5568C38.7628 47.2727 38.5147 47.0549 38.2003 46.9034C37.8859 46.7481 37.5317 46.6705 37.1378 46.6705C36.7211 46.6705 36.3575 46.7557 36.0469 46.9261C35.7363 47.0966 35.4976 47.3371 35.331 47.6477C35.1643 47.9583 35.081 48.322 35.081 48.7386H33.4048C33.4048 48.0303 33.5677 47.411 33.8935 46.8807C34.2192 46.3504 34.6662 45.9394 35.2344 45.6477C35.8026 45.3523 36.4484 45.2045 37.1719 45.2045C37.9029 45.2045 38.5469 45.3504 39.1037 45.642C39.6643 45.9299 40.1018 46.3239 40.4162 46.8239C40.7306 47.3201 40.8878 47.8807 40.8878 48.5057C40.8878 48.9375 40.8063 49.3598 40.6435 49.7727C40.4844 50.1856 40.206 50.6458 39.8082 51.1534C39.4105 51.6572 38.8575 52.2689 38.1491 52.9886L35.8366 55.4091V55.4943H41.0753V57H33.4162ZM42.7344 54.7273V53.3068L47.7628 45.3636H48.8821V47.4545H48.1719L44.5753 53.1477V53.2386H51.4673V54.7273H42.7344ZM48.2514 57V54.2955L48.2628 53.6477V45.3636H49.9276V57H48.2514ZM57.2884 57.1591C56.5762 57.1591 55.9361 57.0227 55.3679 56.75C54.8035 56.4735 54.3527 56.0947 54.0156 55.6136C53.6785 55.1326 53.4986 54.5833 53.4759 53.9659H55.1804C55.2221 54.4659 55.4437 54.8769 55.8452 55.1989C56.2467 55.5208 56.7277 55.6818 57.2884 55.6818C57.7353 55.6818 58.1312 55.5795 58.4759 55.375C58.8243 55.1667 59.0971 54.8807 59.294 54.517C59.4948 54.1534 59.5952 53.7386 59.5952 53.2727C59.5952 52.7992 59.4929 52.3769 59.2884 52.0057C59.0838 51.6345 58.8016 51.3428 58.4418 51.1307C58.0857 50.9186 57.6766 50.8106 57.2145 50.8068C56.8622 50.8068 56.508 50.8674 56.152 50.9886C55.7959 51.1098 55.508 51.2689 55.2884 51.4659L53.6804 51.2273L54.3338 45.3636H60.7315V46.8693H55.794L55.4247 50.125H55.4929C55.7202 49.9053 56.0213 49.7216 56.3963 49.5739C56.7751 49.4261 57.1804 49.3523 57.6122 49.3523C58.3205 49.3523 58.9512 49.5208 59.5043 49.858C60.0611 50.1951 60.4986 50.6553 60.8168 51.2386C61.1387 51.8182 61.2978 52.4848 61.294 53.2386C61.2978 53.9924 61.1274 54.6648 60.7827 55.2557C60.4418 55.8466 59.9683 56.3125 59.3622 56.6534C58.7599 56.9905 58.0687 57.1591 57.2884 57.1591ZM64.0895 57.108C63.7789 57.108 63.5118 56.9981 63.2884 56.7784C63.0649 56.5549 62.9531 56.286 62.9531 55.9716C62.9531 55.661 63.0649 55.3958 63.2884 55.1761C63.5118 54.9527 63.7789 54.8409 64.0895 54.8409C64.4001 54.8409 64.6671 54.9527 64.8906 55.1761C65.1141 55.3958 65.2259 55.661 65.2259 55.9716C65.2259 56.1799 65.1728 56.3712 65.0668 56.5455C64.9645 56.7159 64.8281 56.8523 64.6577 56.9545C64.4872 57.0568 64.2978 57.108 64.0895 57.108ZM71.108 57.1932C70.2102 57.1894 69.4432 56.9527 68.8068 56.483C68.1705 56.0133 67.6837 55.3295 67.3466 54.4318C67.0095 53.5341 66.8409 52.4527 66.8409 51.1875C66.8409 49.9261 67.0095 48.8485 67.3466 47.9545C67.6875 47.0606 68.1761 46.3788 68.8125 45.9091C69.4527 45.4394 70.2178 45.2045 71.108 45.2045C71.9981 45.2045 72.7614 45.4413 73.3977 45.9148C74.0341 46.3845 74.5208 47.0663 74.858 47.9602C75.1989 48.8504 75.3693 49.9261 75.3693 51.1875C75.3693 52.4564 75.2008 53.5398 74.8636 54.4375C74.5265 55.3314 74.0398 56.0152 73.4034 56.4886C72.767 56.9583 72.0019 57.1932 71.108 57.1932ZM71.108 55.6761C71.8958 55.6761 72.5114 55.2917 72.9545 54.5227C73.4015 53.7538 73.625 52.642 73.625 51.1875C73.625 50.2216 73.5227 49.4053 73.3182 48.7386C73.1174 48.0682 72.8277 47.5606 72.4489 47.2159C72.0739 46.8674 71.6269 46.6932 71.108 46.6932C70.3239 46.6932 69.7083 47.0795 69.2614 47.8523C68.8144 48.625 68.589 49.7367 68.5852 51.1875C68.5852 52.1572 68.6856 52.9773 68.8864 53.6477C69.0909 54.3144 69.3807 54.8201 69.7557 55.1648C70.1307 55.5057 70.5814 55.6761 71.108 55.6761ZM81.4361 57.1932C80.5384 57.1894 79.7713 56.9527 79.1349 56.483C78.4986 56.0133 78.0118 55.3295 77.6747 54.4318C77.3376 53.5341 77.169 52.4527 77.169 51.1875C77.169 49.9261 77.3376 48.8485 77.6747 47.9545C78.0156 47.0606 78.5043 46.3788 79.1406 45.9091C79.7808 45.4394 80.5459 45.2045 81.4361 45.2045C82.3262 45.2045 83.0895 45.4413 83.7259 45.9148C84.3622 46.3845 84.849 47.0663 85.1861 47.9602C85.527 48.8504 85.6974 49.9261 85.6974 51.1875C85.6974 52.4564 85.5289 53.5398 85.1918 54.4375C84.8546 55.3314 84.3679 56.0152 83.7315 56.4886C83.0952 56.9583 82.33 57.1932 81.4361 57.1932ZM81.4361 55.6761C82.224 55.6761 82.8395 55.2917 83.2827 54.5227C83.7296 53.7538 83.9531 52.642 83.9531 51.1875C83.9531 50.2216 83.8509 49.4053 83.6463 48.7386C83.4455 48.0682 83.1558 47.5606 82.777 47.2159C82.402 46.8674 81.955 46.6932 81.4361 46.6932C80.652 46.6932 80.0365 47.0795 79.5895 47.8523C79.1425 48.625 78.9171 49.7367 78.9134 51.1875C78.9134 52.1572 79.0137 52.9773 79.2145 53.6477C79.419 54.3144 79.7088 54.8201 80.0838 55.1648C80.4588 55.5057 80.9096 55.6761 81.4361 55.6761Z" fill="#191A15"/>
<path d="M21.5795 22.2102V21.2727H28.125V22.2102H25.3807V30H24.3239V22.2102H21.5795ZM31.3295 30.1364C30.7386 30.1364 30.2202 29.9957 29.7741 29.7145C29.331 29.4332 28.9844 29.0398 28.7344 28.5341C28.4872 28.0284 28.3636 27.4375 28.3636 26.7614C28.3636 26.0795 28.4872 25.4844 28.7344 24.9759C28.9844 24.4673 29.331 24.0724 29.7741 23.7912C30.2202 23.5099 30.7386 23.3693 31.3295 23.3693C31.9205 23.3693 32.4375 23.5099 32.8807 23.7912C33.3267 24.0724 33.6733 24.4673 33.9205 24.9759C34.1705 25.4844 34.2955 26.0795 34.2955 26.7614C34.2955 27.4375 34.1705 28.0284 33.9205 28.5341C33.6733 29.0398 33.3267 29.4332 32.8807 29.7145C32.4375 29.9957 31.9205 30.1364 31.3295 30.1364ZM31.3295 29.233C31.7784 29.233 32.1477 29.1179 32.4375 28.8878C32.7273 28.6577 32.9418 28.3551 33.081 27.9801C33.2202 27.6051 33.2898 27.1989 33.2898 26.7614C33.2898 26.3239 33.2202 25.9162 33.081 25.5384C32.9418 25.1605 32.7273 24.8551 32.4375 24.6222C32.1477 24.3892 31.7784 24.2727 31.3295 24.2727C30.8807 24.2727 30.5114 24.3892 30.2216 24.6222C29.9318 24.8551 29.7173 25.1605 29.5781 25.5384C29.4389 25.9162 29.3693 26.3239 29.3693 26.7614C29.3693 27.1989 29.4389 27.6051 29.5781 27.9801C29.7173 28.3551 29.9318 28.6577 30.2216 28.8878C30.5114 29.1179 30.8807 29.233 31.3295 29.233ZM38.6772 23.4545V24.3068H35.2852V23.4545H38.6772ZM36.2738 21.8864H37.2795V28.125C37.2795 28.4091 37.3207 28.6222 37.4031 28.7642C37.4883 28.9034 37.5962 28.9972 37.7269 29.0455C37.8604 29.0909 38.0011 29.1136 38.1488 29.1136C38.2596 29.1136 38.3505 29.108 38.4215 29.0966C38.4925 29.0824 38.5494 29.071 38.592 29.0625L38.7965 29.9659C38.7283 29.9915 38.6332 30.017 38.511 30.0426C38.3888 30.071 38.234 30.0852 38.0465 30.0852C37.7624 30.0852 37.484 30.0241 37.2113 29.902C36.9414 29.7798 36.717 29.5938 36.538 29.3438C36.3619 29.0938 36.2738 28.7784 36.2738 28.3977V21.8864ZM42.1161 30.1534C41.7013 30.1534 41.3249 30.0753 40.9869 29.919C40.6488 29.7599 40.3803 29.5312 40.1815 29.233C39.9826 28.9318 39.8832 28.5682 39.8832 28.142C39.8832 27.767 39.957 27.4631 40.1048 27.2301C40.2525 26.9943 40.4499 26.8097 40.6971 26.6761C40.9442 26.5426 41.217 26.4432 41.5153 26.3778C41.8164 26.3097 42.119 26.2557 42.4229 26.2159C42.8207 26.1648 43.1431 26.1264 43.3903 26.1009C43.6403 26.0724 43.8221 26.0256 43.9357 25.9602C44.0522 25.8949 44.1104 25.7812 44.1104 25.6193V25.5852C44.1104 25.1648 43.9954 24.8381 43.7653 24.6051C43.538 24.3722 43.1928 24.2557 42.7298 24.2557C42.2496 24.2557 41.8732 24.3608 41.6005 24.571C41.3278 24.7812 41.136 25.0057 41.0252 25.2443L40.0707 24.9034C40.2411 24.5057 40.4684 24.196 40.7525 23.9744C41.0394 23.75 41.3519 23.5937 41.69 23.5057C42.0309 23.4148 42.3661 23.3693 42.6957 23.3693C42.9059 23.3693 43.1474 23.3949 43.4201 23.446C43.6957 23.4943 43.9613 23.5952 44.217 23.7486C44.4755 23.902 44.69 24.1335 44.8604 24.4432C45.0309 24.7528 45.1161 25.1676 45.1161 25.6875V30H44.1104V29.1136H44.0593C43.9911 29.2557 43.8775 29.4077 43.7184 29.5696C43.5593 29.7315 43.3477 29.8693 43.0835 29.983C42.8192 30.0966 42.4968 30.1534 42.1161 30.1534ZM42.2695 29.25C42.6673 29.25 43.0025 29.1719 43.2752 29.0156C43.5508 28.8594 43.7582 28.6577 43.8974 28.4105C44.0394 28.1634 44.1104 27.9034 44.1104 27.6307V26.7102C44.0678 26.7614 43.9741 26.8082 43.8292 26.8509C43.6871 26.8906 43.5224 26.9261 43.3349 26.9574C43.1502 26.9858 42.9698 27.0114 42.7937 27.0341C42.6204 27.054 42.4798 27.071 42.3718 27.0852C42.1104 27.1193 41.8661 27.1747 41.6388 27.2514C41.4144 27.3253 41.2326 27.4375 41.0934 27.5881C40.957 27.7358 40.8888 27.9375 40.8888 28.1932C40.8888 28.5426 41.0181 28.8068 41.2766 28.9858C41.538 29.1619 41.869 29.25 42.2695 29.25ZM47.9574 21.2727V30H46.9517V21.2727H47.9574ZM54.3675 21.2727V30H53.3107V21.2727H54.3675ZM57.3558 26.0625V30H56.3501V23.4545H57.3217V24.4773H57.407C57.5604 24.1449 57.7933 23.8778 58.1058 23.6761C58.4183 23.4716 58.8217 23.3693 59.3161 23.3693C59.7592 23.3693 60.147 23.4602 60.4794 23.642C60.8118 23.821 61.0703 24.0938 61.255 24.4602C61.4396 24.8239 61.532 25.2841 61.532 25.8409V30H60.5263V25.9091C60.5263 25.3949 60.3928 24.9943 60.1257 24.7074C59.8587 24.4176 59.4922 24.2727 59.0263 24.2727C58.7053 24.2727 58.4183 24.3423 58.1655 24.4815C57.9155 24.6207 57.718 24.8239 57.5732 25.0909C57.4283 25.358 57.3558 25.6818 57.3558 26.0625ZM66.0288 30.1364C65.4151 30.1364 64.8867 29.9915 64.4435 29.7017C64.0004 29.4119 63.6594 29.0128 63.4208 28.5043C63.1822 27.9957 63.0629 27.4148 63.0629 26.7614C63.0629 26.0966 63.185 25.5099 63.4293 25.0014C63.6765 24.4901 64.0202 24.0909 64.4606 23.804C64.9038 23.5142 65.4208 23.3693 66.0117 23.3693C66.4719 23.3693 66.8867 23.4545 67.256 23.625C67.6254 23.7955 67.9279 24.0341 68.1637 24.3409C68.3995 24.6477 68.5458 25.0057 68.6026 25.4148H67.5969C67.5202 25.1165 67.3498 24.8523 67.0856 24.6222C66.8242 24.3892 66.4719 24.2727 66.0288 24.2727C65.6367 24.2727 65.293 24.375 64.9975 24.5795C64.7049 24.7812 64.4762 25.0668 64.3114 25.4361C64.1495 25.8026 64.0685 26.233 64.0685 26.7273C64.0685 27.233 64.1481 27.6733 64.3072 28.0483C64.4691 28.4233 64.6964 28.7145 64.989 28.9219C65.2844 29.1293 65.631 29.233 66.0288 29.233C66.2901 29.233 66.5273 29.1875 66.7404 29.0966C66.9535 29.0057 67.1339 28.875 67.2816 28.7045C67.4293 28.5341 67.5344 28.3295 67.5969 28.0909H68.6026C68.5458 28.4773 68.4052 28.8253 68.1808 29.1349C67.9592 29.4418 67.6651 29.6861 67.2987 29.8679C66.935 30.0469 66.5117 30.1364 66.0288 30.1364ZM72.7319 30.1364C72.141 30.1364 71.6225 29.9957 71.1765 29.7145C70.7333 29.4332 70.3867 29.0398 70.1367 28.5341C69.8896 28.0284 69.766 27.4375 69.766 26.7614C69.766 26.0795 69.8896 25.4844 70.1367 24.9759C70.3867 24.4673 70.7333 24.0724 71.1765 23.7912C71.6225 23.5099 72.141 23.3693 72.7319 23.3693C73.3228 23.3693 73.8398 23.5099 74.283 23.7912C74.729 24.0724 75.0756 24.4673 75.3228 24.9759C75.5728 25.4844 75.6978 26.0795 75.6978 26.7614C75.6978 27.4375 75.5728 28.0284 75.3228 28.5341C75.0756 29.0398 74.729 29.4332 74.283 29.7145C73.8398 29.9957 73.3228 30.1364 72.7319 30.1364ZM72.7319 29.233C73.1808 29.233 73.5501 29.1179 73.8398 28.8878C74.1296 28.6577 74.3441 28.3551 74.4833 27.9801C74.6225 27.6051 74.6921 27.1989 74.6921 26.7614C74.6921 26.3239 74.6225 25.9162 74.4833 25.5384C74.3441 25.1605 74.1296 24.8551 73.8398 24.6222C73.5501 24.3892 73.1808 24.2727 72.7319 24.2727C72.283 24.2727 71.9137 24.3892 71.6239 24.6222C71.3342 24.8551 71.1197 25.1605 70.9805 25.5384C70.8413 25.9162 70.7717 26.3239 70.7717 26.7614C70.7717 27.1989 70.8413 27.6051 70.9805 27.9801C71.1197 28.3551 71.3342 28.6577 71.6239 28.8878C71.9137 29.1179 72.283 29.233 72.7319 29.233ZM77.233 30V23.4545H78.2045V24.4773H78.2898C78.4261 24.1278 78.6463 23.8565 78.9503 23.6634C79.2543 23.4673 79.6193 23.3693 80.0455 23.3693C80.4773 23.3693 80.8366 23.4673 81.1236 23.6634C81.4134 23.8565 81.6392 24.1278 81.8011 24.4773H81.8693C82.0369 24.1392 82.2884 23.8707 82.6236 23.6719C82.9588 23.4702 83.3608 23.3693 83.8295 23.3693C84.4148 23.3693 84.8935 23.5526 85.2656 23.919C85.6378 24.2827 85.8239 24.8494 85.8239 25.6193V30H84.8182V25.6193C84.8182 25.1364 84.6861 24.7912 84.4219 24.5838C84.1577 24.3764 83.8466 24.2727 83.4886 24.2727C83.0284 24.2727 82.6719 24.4119 82.419 24.6903C82.1662 24.9659 82.0398 25.3153 82.0398 25.7386V30H81.017V25.517C81.017 25.1449 80.8963 24.8452 80.6548 24.6179C80.4134 24.3878 80.1023 24.2727 79.7216 24.2727C79.4602 24.2727 79.2159 24.3423 78.9886 24.4815C78.7642 24.6207 78.5824 24.8139 78.4432 25.0611C78.3068 25.3054 78.2386 25.5881 78.2386 25.9091V30H77.233ZM90.407 30.1364C89.7763 30.1364 89.2322 29.9972 88.7749 29.7188C88.3203 29.4375 87.9695 29.0455 87.7223 28.5426C87.478 28.0369 87.3558 27.4489 87.3558 26.7784C87.3558 26.108 87.478 25.517 87.7223 25.0057C87.9695 24.4915 88.3132 24.0909 88.7536 23.804C89.1967 23.5142 89.7138 23.3693 90.3047 23.3693C90.6456 23.3693 90.9822 23.4261 91.3146 23.5398C91.647 23.6534 91.9496 23.8381 92.2223 24.0938C92.495 24.3466 92.7124 24.6818 92.8743 25.0994C93.0362 25.517 93.1172 26.0312 93.1172 26.642V27.0682H88.0717V26.1989H92.0945C92.0945 25.8295 92.0206 25.5 91.8729 25.2102C91.728 24.9205 91.5206 24.6918 91.2507 24.5241C90.9837 24.3565 90.6683 24.2727 90.3047 24.2727C89.9041 24.2727 89.5575 24.3722 89.2649 24.571C88.9751 24.767 88.7521 25.0227 88.5959 25.3381C88.4396 25.6534 88.3615 25.9915 88.3615 26.3523V26.9318C88.3615 27.4261 88.4467 27.8452 88.6172 28.1889C88.7905 28.5298 89.0305 28.7898 89.3374 28.9688C89.6442 29.1449 90.0007 29.233 90.407 29.233C90.6712 29.233 90.9098 29.196 91.1229 29.1222C91.3388 29.0455 91.5249 28.9318 91.6811 28.7812C91.8374 28.6278 91.9581 28.4375 92.0433 28.2102L93.0149 28.483C92.9126 28.8125 92.7408 29.1023 92.4993 29.3523C92.2578 29.5994 91.9595 29.7926 91.6044 29.9318C91.2493 30.0682 90.8501 30.1364 90.407 30.1364Z" fill="#A9A7B6"/>
<path d="M130 57.6667V49.3333" stroke="#74C9A9" stroke-width="1.66667" stroke-linecap="round" stroke-linejoin="round"/>
<path d="M125 57.6667V44.3333" stroke="#74C9A9" stroke-width="1.66667" stroke-linecap="round" stroke-linejoin="round"/>
<path d="M120 57.6667V52.6667" stroke="#74C9A9" stroke-width="1.66667" stroke-linecap="round" stroke-linejoin="round"/>
<defs>
<filter id="filter0_d_0_217" x="0" y="0" width="156" height="88" filterUnits="userSpaceOnUse" color-interpolation-filters="sRGB">
<feFlood flood-opacity="0" result="BackgroundImageFix"/>
<feColorMatrix in="SourceAlpha" type="matrix" values="0 0 0 0 0 0 0 0 0 0 0 0 0 0 0 0 0 0 127 0" result="hardAlpha"/>
<feOffset dy="4"/>
<feGaussianBlur stdDeviation="4.5"/>
<feComposite in2="hardAlpha" operator="out"/>
<feColorMatrix type="matrix" values="0 0 0 0 0 0 0 0 0 0 0 0 0 0 0 0 0 0 0.05 0"/>
<feBlend mode="normal" in2="BackgroundImageFix" result="effect1_dropShadow_0_217"/>
<feBlend mode="normal" in="SourceGraphic" in2="effect1_dropShadow_0_217" result="shape"/>
</filter>
</defs>
</svg>
